<?xml version="1.0" encoding="utf-8"?>
<!-- Generator: Adobe Illustrator 23.0.1, SVG Export Plug-In . SVG Version: 6.00 Build 0)  -->
<svg version="1.1" id="Behance" xmlns="http://www.w3.org/2000/svg" xmlns:xlink="http://www.w3.org/1999/xlink" x="0px" y="0px"
	 viewBox="0 0 144.1 144" style="enable-background:new 0 0 144.1 144;" xml:space="preserve">
<style type="text/css">
	.st0{fill:#FFFFFF;}
</style>
<path class="st0" d="M72,11.2c-33.5,0-60.8,27.3-60.8,60.8s27.3,60.8,60.8,60.8c33.5,0,60.8-27.3,60.8-60.8S105.6,11.2,72,11.2z
	 M72,126.8c-30.2,0-54.8-24.6-54.8-54.8S41.8,17.2,72,17.2c30.2,0,54.8,24.6,54.8,54.8S102.3,126.8,72,126.8z"/>
<path class="st0" d="M65.3,70.6c1.9-0.8,3.4-2.1,4.4-3.8c1.1-1.7,1.6-3.6,1.6-5.6c0-1.9-0.4-3.6-1.3-5.1c-0.9-1.5-2-2.7-3.3-3.6
	c-1.3-0.9-2.8-1.5-4.5-1.8s-4.2-0.4-7.7-0.4H37.2v43.3H52c5.6,0,9.1-0.1,10.5-0.3c2.3-0.3,4.3-0.9,5.9-2.1c1.6-1.1,2.8-2.6,3.8-4.5
	s1.4-3.8,1.4-5.7c0-2.5-0.7-4.7-2.1-6.5C70,72.7,67.9,71.4,65.3,70.6z M46,57.6h5c4.1,0,6.6,0,7.5,0.1c1.5,0.2,2.6,0.7,3.3,1.5
	c0.7,0.8,1.1,1.9,1.1,3.3c0,1.4-0.4,2.5-1.3,3.4s-2,1.4-3.5,1.6c-0.8,0.1-2.9,0.1-6.4,0.1H46C46,67.6,46,57.6,46,57.6z M63.3,84.4
	c-0.8,0.9-1.9,1.5-3.2,1.7c-0.8,0.2-2.8,0.3-6,0.3H46V74.8H53c4,0,6.6,0.2,7.8,0.6c1.2,0.4,2.1,1.1,2.7,2c0.6,0.9,0.9,2,0.9,3.3
	C64.5,82.2,64.1,83.5,63.3,84.4z"/>
<path class="st0" d="M102.3,65.2c-2.8-3.1-6.7-4.6-11.6-4.6c-4.4,0-8,1.5-10.8,4.4s-4.3,7-4.3,12.2c0,4.4,1.1,8,3.3,10.8
	c2.8,3.6,7,5.3,12.7,5.3c3.6,0,6.6-0.8,9.1-2.4c2.4-1.6,5.5-4.9,5.6-7.8l-9,0.1c-0.5,1.6-1.2,2.1-2.1,2.8c-0.9,0.7-2.1,1.1-3.4,1.1
	c-2,0-3.7-0.7-5-2.1c-1.3-1.4-2-3.3-2.1-5.7h21.9C106.5,73,105.1,68.3,102.3,65.2z M84.6,74.3c0-2.3,0.6-4.1,1.8-5.4
	c1.2-1.3,2.8-2,4.7-2c1.8,0,3.3,0.6,4.5,1.9s1.9,3.1,2,5.5C97.7,74.3,84.6,74.3,84.6,74.3z"/>
<rect x="82.3" y="52.2" class="st0" width="17.5" height="4.2"/>
</svg>
