<?xml version="1.0" encoding="utf-8"?>
<!-- Generator: Adobe Illustrator 23.0.1, SVG Export Plug-In . SVG Version: 6.00 Build 0)  -->
<svg version="1.1" id="Camada_1" xmlns="http://www.w3.org/2000/svg" xmlns:xlink="http://www.w3.org/1999/xlink" x="0px" y="0px"
	 viewBox="0 0 24 24" style="enable-background:new 0 0 24 24;" xml:space="preserve">
<style type="text/css">
	.st0{fill:#FFFFFF;stroke:#303C42;stroke-linecap:round;stroke-linejoin:round;}
</style>
<title>Github 1</title>
<g id="Github_1">
	<g id="_Group_">
		<path id="_Path_" class="st0" d="M12,0.5C5.6,0.5,0.5,5.6,0.5,12c0,5.4,3.7,10.2,9,11.5v-3h-1c-2.6,0-3.5-4-5-4c2.8,0,3.3,2,5,2
			c0.5,0.1,0.9-0.3,1-0.8c0-0.1,0-0.2,0-0.2v-0.4c-2.9-0.8-5-3-5-5.6c0-1.4,0.6-2.7,1.6-3.7C5.6,6.7,5.7,5.4,6.5,4.5
			C7.4,4.8,8.2,5.3,8.9,6c2-0.7,4.2-0.7,6.2,0c0.6-0.7,1.5-1.2,2.4-1.5c0.8,0.9,0.9,2.2,0.4,3.3c1,1,1.5,2.3,1.6,3.7
			c0,2.7-2.3,5-5.4,5.8c0.3,0.7,0.5,1.5,0.4,2.2v4c5.3-1.3,9-6.1,9-11.5C23.5,5.6,18.4,0.5,12,0.5z"/>
	</g>
</g>
</svg>
