<?xml version="1.0" encoding="utf-8"?>
<!-- Generator: Adobe Illustrator 23.0.1, SVG Export Plug-In . SVG Version: 6.00 Build 0)  -->
<svg version="1.1" id="linkedin" xmlns="http://www.w3.org/2000/svg" xmlns:xlink="http://www.w3.org/1999/xlink" x="0px" y="0px"
	 viewBox="0 0 144.1 144" style="enable-background:new 0 0 144.1 144;" xml:space="preserve">
<style type="text/css">
	.st0{fill:#FFFFFF;}
</style>
<path class="st0" d="M72,11.2c-33.5,0-60.8,27.3-60.8,60.8c0,33.5,27.3,60.8,60.8,60.8c33.5,0,60.8-27.3,60.8-60.8
	C132.9,38.5,105.6,11.2,72,11.2z M72,126.8c-30.2,0-54.8-24.6-54.8-54.8c0-30.2,24.6-54.8,54.8-54.8s54.8,24.6,54.8,54.8
	C126.9,102.2,102.3,126.8,72,126.8z"/>
<rect x="41.1" y="59.1" class="st0" width="14.1" height="36.7"/>
<ellipse class="st0" cx="48" cy="46.8" rx="7.1" ry="6.5"/>
<path class="st0" d="M90.6,58.3c-2.9,0-5.3,0.5-7.3,1.6c-2,1-4,2.8-5.9,5.2v-6H64.2v36.7h14.1V78.2c0-3.3,0.5-5.7,1.6-7
	c1.1-1.3,2.4-1.9,4.2-1.9c1.5,0,2.7,0.5,3.6,1.4s1.3,2.6,1.3,4.9v20.2h14.1V72.5c0-4.8-1.1-8.4-3.3-10.7
	C97.6,59.4,94.5,58.3,90.6,58.3z"/>
</svg>
